# xmcd CD database file
#
# Track frame offsets:
#	150
#	17382
#	38445
#	65427
#	82025
#	105967
#
# Disc length: 1597 seconds
#
# Revision: 0
# Processed by: cddbd v1.5.1PL0 Copyright (c) Steve Scherf et al.
# Submitted via: CDex 1.60beta1
#
DISCID=36063b06
DTITLE=Jesse Cook - Narada New Release Sampler (1996)
DYEAR=1996
DGENRE=New Age
TTITLE0=Jesse Cook - Mario Takes A Walk From Gravity
TTITLE1=Aoife Ni Fhearraigh - Seacht Sualci Na Maighdine Muire From Celtic Spirit
TTITLE2=Samite - Ekibobo From Afican Voices
TTITLE3=Michael Whalen - The Dark And The Light From Forever Wild
TTITLE4=Michael Jones - Evening From Touch
TTITLE5=Savia Andina - Tempestad From Andean Legacy
EXTD=YEAR: 1996
EXTT0=
EXTT1=
EXTT2=
EXTT3=
EXTT4=
EXTT5=
PLAYORDER=
